<svg width="100" viewBox="0 0 200 200" xmlns="http://www.w3.org/2000/svg">
<path fill-rule="evenodd" clip-rule="evenodd" d="M128.415 31.4056L116.902 19.6044L125.84 10.8785L133.616 18.8418L144.742 18.7043C149.558 18.6473 154.337 19.5539 158.798 21.3707C163.258 23.1875 167.311 25.8779 170.716 29.2836C174.122 32.6894 176.813 36.7417 178.629 41.2024C180.446 45.663 181.353 50.4419 181.296 55.258L181.171 66.3841L189.121 74.1599C192.565 77.5249 195.301 81.5442 197.169 85.9817C199.038 90.4192 200 95.1853 200 100C200 104.815 199.038 109.581 197.169 114.018C195.301 118.456 192.565 122.475 189.121 125.84L181.158 133.616L181.296 144.742C181.353 149.558 180.446 154.337 178.629 158.798C176.813 163.258 174.122 167.311 170.716 170.716C167.311 174.122 163.258 176.813 158.798 178.629C154.337 180.446 149.558 181.353 144.742 181.296L133.616 181.171L125.84 189.121C122.475 192.565 118.456 195.301 114.018 197.169C109.581 199.038 104.815 200 100 200C95.1853 200 90.4192 199.038 85.9817 197.169C81.5442 195.301 77.5249 192.565 74.1599 189.121L66.3841 181.158L55.258 181.296C50.4419 181.353 45.663 180.446 41.2024 178.629C36.7417 176.813 32.6894 174.122 29.2836 170.716C25.8779 167.311 23.1875 163.258 21.3707 158.798C19.5539 154.337 18.6473 149.558 18.7043 144.742L18.8293 133.616L10.8785 125.84C7.43494 122.475 4.69867 118.456 2.83051 114.018C0.962355 109.581 0 104.815 0 100C0 95.1853 0.962355 90.4192 2.83051 85.9817C4.69867 81.5442 7.43494 77.5249 10.8785 74.1599L18.8418 66.3841L18.7043 55.258C18.6473 50.4419 19.5539 45.663 21.3707 41.2024C23.1875 36.7417 25.8779 32.6894 29.2836 29.2836C32.6894 25.8779 36.7417 23.1875 41.2024 21.3707C45.663 19.5539 50.4419 18.6473 55.258 18.7043L66.3841 18.8293L74.1599 10.8785C77.5249 7.43494 81.5442 4.69867 85.9817 2.83051C90.4192 0.962355 95.1853 0 100 0C104.815 0 109.581 0.962355 114.018 2.83051C118.456 4.69867 122.475 7.43494 125.84 10.8785L116.902 19.6044C114.701 17.3515 112.072 15.5613 109.17 14.3391C106.267 13.1168 103.149 12.4872 100 12.4872C96.8506 12.4872 93.733 13.1168 90.8305 14.3391C87.9279 15.5613 85.299 17.3515 83.0983 19.6044L71.5971 31.4056L55.0955 31.2056C51.9474 31.1704 48.824 31.7647 45.9088 32.9536C42.9937 34.1425 40.3455 35.902 38.1199 38.1288C35.8943 40.3555 34.1362 43.0046 32.9488 45.9204C31.7614 48.8362 31.1687 51.9599 31.2056 55.108L31.4056 71.5846L19.6044 83.0983C17.3515 85.299 15.5613 87.9279 14.3391 90.8305C13.1168 93.733 12.4872 96.8506 12.4872 100C12.4872 103.149 13.1168 106.267 14.3391 109.17C15.5613 112.072 17.3515 114.701 19.6044 116.902L31.4056 128.403L31.2056 144.905C31.1704 148.053 31.7647 151.176 32.9536 154.091C34.1425 157.006 35.902 159.655 38.1288 161.88C40.3555 164.106 43.0046 165.864 45.9204 167.051C48.8362 168.239 51.9599 168.831 55.108 168.794L71.5846 168.594L83.0983 180.396C85.299 182.648 87.9279 184.439 90.8305 185.661C93.733 186.883 96.8506 187.513 100 187.513C103.149 187.513 106.267 186.883 109.17 185.661C112.072 184.439 114.701 182.648 116.902 180.396L128.403 168.594L144.905 168.794C148.053 168.83 151.176 168.235 154.091 167.046C157.006 165.857 159.655 164.098 161.88 161.871C164.106 159.644 165.864 156.995 167.051 154.08C168.239 151.164 168.831 148.04 168.794 144.892L168.594 128.415L180.396 116.902C182.648 114.701 184.439 112.072 185.661 109.17C186.883 106.267 187.513 103.149 187.513 100C187.513 96.8506 186.883 93.733 185.661 90.8305C184.439 87.9279 182.648 85.299 180.396 83.0983L168.594 71.5971L168.794 55.0955C168.83 51.9474 168.235 48.824 167.046 45.9088C165.857 42.9937 164.098 40.3455 161.871 38.1199C159.644 35.8943 156.995 34.1362 154.08 32.9488C151.164 31.7614 148.04 31.1687 144.892 31.2056L128.415 31.4056Z" fill="#f15e5e"/>
<path d="M141.004 62.517C140.677 61.7286 140.198 61.0124 139.594 60.4093C138.99 59.8041 138.273 59.3239 137.484 58.9963C136.694 58.6686 135.848 58.5 134.993 58.5C134.138 58.5 133.291 58.6686 132.502 58.9963C131.713 59.3237 130.996 59.8034 130.393 60.4079C130.392 60.4084 130.392 60.4088 130.392 60.4093L60.4085 130.392C59.1885 131.612 58.5032 133.267 58.5032 134.992C58.5032 136.717 59.1885 138.372 60.4085 139.592C61.6285 140.812 63.2831 141.497 65.0084 141.497C66.7337 141.497 68.3883 140.812 69.6082 139.592L139.591 69.609C139.592 69.6086 139.592 69.6082 139.593 69.6078C140.197 69.0043 140.677 68.2876 141.004 67.4986C141.332 66.7091 141.501 65.8626 141.501 65.0078C141.501 64.153 141.332 63.3066 141.004 62.517Z" fill="#f15e5e" stroke="#f15e5e" stroke-width="3"/>
<path d="M62.517 58.9963C61.728 59.3237 61.0114 59.8034 60.4079 60.4079C59.8034 61.0114 59.3237 61.728 58.9963 62.517C58.6686 63.3066 58.5 64.153 58.5 65.0078C58.5 65.8626 58.6686 66.7091 58.9963 67.4986C59.3238 68.2879 59.8037 69.0048 60.4086 69.6084C60.4088 69.6086 60.4091 69.6088 60.4093 69.609L130.392 139.592C131.612 140.812 133.267 141.497 134.992 141.497C136.717 141.497 138.372 140.812 139.592 139.592C140.812 138.372 141.497 136.717 141.497 134.992C141.497 133.267 140.812 131.612 139.592 130.392L69.609 60.4093C69.6088 60.4091 69.6086 60.4088 69.6084 60.4086C69.0048 59.8037 68.2879 59.3238 67.4986 58.9963C66.7091 58.6686 65.8626 58.5 65.0078 58.5C64.153 58.5 63.3066 58.6686 62.517 58.9963Z" fill="#f15e5e" stroke="#f15e5e" stroke-width="3"/>
</svg>
