<svg width="50" viewBox="0 0 100 100" fill="none" xmlns="http://www.w3.org/2000/svg">
<path d="M50 0C77.6116 0 100 22.3884 100 50C100 77.6116 77.6116 100 50 100C22.3884 100 0 77.6116 0 50C0 22.3884 22.3884 0 50 0ZM28.5714 52.6786C28.5714 53.1696 28.9732 53.5714 29.4643 53.5714H46.4286V70.5357C46.4286 71.0268 46.8304 71.4286 47.3214 71.4286H52.6786C53.1696 71.4286 53.5714 71.0268 53.5714 70.5357V53.5714H70.5357C71.0268 53.5714 71.4286 53.1696 71.4286 52.6786V47.3214C71.4286 46.8304 71.0268 46.4286 70.5357 46.4286H53.5714V29.4643C53.5714 28.9732 53.1696 28.5714 52.6786 28.5714H47.3214C46.8304 28.5714 46.4286 28.9732 46.4286 29.4643V46.4286H29.4643C28.9732 46.4286 28.5714 46.8304 28.5714 47.3214V52.6786Z" fill="black"/>
</svg>
