<svg class="fill-hover" viewBox="0 0 45 45" xmlns="http://www.w3.org/2000/svg" width="27px">
<path fill-rule="evenodd" clip-rule="evenodd" d="M22.6407 12.6562C17.1563 12.6562 12.7969 17.0156 12.7969 22.5C12.7969 27.9844 17.1563 32.3437 22.6407 32.3437C28.125 32.3437 32.4844 27.9844 32.4844 22.5C32.4844 17.0156 28.125 12.6562 22.6407 12.6562ZM22.6407 29.5312C18.7032 29.5312 15.6094 26.4375 15.6094 22.5C15.6094 18.5625 18.7032 15.4687 22.6407 15.4687C26.5782 15.4687 29.6719 18.5625 29.6719 22.5C29.6719 26.4375 26.5782 29.5312 22.6407 29.5312Z"/>
<path fill-rule="evenodd" clip-rule="evenodd" d="M43.3125 17.8594L39.375 16.5938L38.5312 14.4844L40.5 10.8281C40.9219 9.98438 40.7812 8.85938 40.0781 8.15625L36.7031 4.78125C36 4.07812 34.875 3.9375 34.0312 4.35938L30.375 6.32812L28.2656 5.48438L27 1.54687C26.7188 0.703125 25.875 0 24.8906 0H20.1094C19.125 0 18.2812 0.703125 18.1406 1.6875L16.875 5.625C16.0312 5.76562 15.3281 6.04688 14.625 6.46875L10.9688 4.5C10.125 4.07812 9 4.21875 8.29688 4.92188L4.92188 8.29688C4.21875 9 4.07812 10.125 4.5 10.9688L6.32812 14.4844C6.04688 15.1875 5.76562 16.0312 5.48438 16.7344L1.54687 18C0.703125 18.2812 0 19.125 0 20.1094V24.8906C0 25.875 0.703125 26.7188 1.6875 27L5.625 28.2656L6.46875 30.375L4.5 34.0312C4.07812 34.875 4.21875 36 4.92188 36.7031L8.29688 40.0781C9 40.7812 10.125 40.9219 10.9688 40.5L14.625 38.5312L16.7344 39.375L18 43.4531C18.2812 44.2969 19.125 45 20.1094 45H24.8906C25.875 45 26.7188 44.2969 27 43.4531L28.2656 39.375L30.375 38.5312L34.0312 40.5C34.875 40.9219 36 40.7812 36.7031 40.0781L40.0781 36.7031C40.7812 36 40.9219 34.875 40.5 34.0312L38.5312 30.375L39.375 28.2656L43.4531 27C44.2969 26.7188 45 25.875 45 24.8906V20.1094C45 19.125 44.2969 18.1406 43.3125 17.8594ZM42.1875 24.4688L37.125 26.0156L36.9844 26.7188L35.7188 29.6719L35.2969 30.375L37.8281 35.0156L35.0156 37.8281L30.375 35.2969L29.6719 35.7188C28.6875 36.2812 27.7031 36.7031 26.7188 36.9844L26.0156 37.125L24.4688 42.1875H20.5312L18.9844 37.125L18.2812 36.9844L15.3281 35.7188L14.625 35.2969L9.98438 37.8281L7.17188 35.0156L9.70312 30.375L9.28125 29.6719C8.71875 28.6875 8.29688 27.7031 8.01562 26.7188L7.875 26.0156L2.8125 24.4688V20.5312L7.59375 19.125L7.875 18.4219C8.15625 17.2969 8.57812 16.3125 9.14062 15.3281L9.5625 14.625L7.17188 9.98438L9.98438 7.17188L14.4844 9.70312L15.1875 9.28125C16.1719 8.71875 17.1562 8.29688 18.2812 8.01562L18.9844 7.73438L20.5312 2.8125H24.4688L26.0156 7.73438L26.7188 8.01562C27.7031 8.29688 28.6875 8.71875 29.6719 9.28125L30.375 9.70312L35.0156 7.17188L37.8281 9.98438L35.2969 14.625L35.7188 15.3281C36.2812 16.3125 36.7031 17.2969 36.9844 18.2812L37.125 18.9844L42.1875 20.5312V24.4688Z"/>
</svg>
