<svg class="fill-hover" viewBox="0 0 45 45" xmlns="http://www.w3.org/2000/svg" width="25px">
<path d="M37.8787 34.7906C35.8818 31.5731 31.4859 28.125 22.5 28.125C13.514 28.125 9.1209 31.5703 7.12122 34.7906C8.96364 37.1004 11.3032 38.9649 13.9657 40.2456C16.6283 41.5262 19.5454 42.19 22.5 42.1875C25.4545 42.19 28.3716 41.5262 31.0342 40.2456C33.6968 38.9649 36.0363 37.1004 37.8787 34.7906Z"/>
<path fill-rule="evenodd" clip-rule="evenodd" d="M22.5 25.3125C24.7378 25.3125 26.8839 24.4236 28.4662 22.8412C30.0486 21.2589 30.9375 19.1128 30.9375 16.875C30.9375 14.6372 30.0486 12.4911 28.4662 10.9088C26.8839 9.32645 24.7378 8.4375 22.5 8.4375C20.2622 8.4375 18.1161 9.32645 16.5338 10.9088C14.9514 12.4911 14.0625 14.6372 14.0625 16.875C14.0625 19.1128 14.9514 21.2589 16.5338 22.8412C18.1161 24.4236 20.2622 25.3125 22.5 25.3125Z"/>
<path fill-rule="evenodd" clip-rule="evenodd" d="M22.5 2.8125C17.2786 2.8125 12.271 4.88671 8.57883 8.57883C4.88671 12.271 2.8125 17.2786 2.8125 22.5C2.8125 27.7214 4.88671 32.729 8.57883 36.4212C12.271 40.1133 17.2786 42.1875 22.5 42.1875C27.7214 42.1875 32.729 40.1133 36.4212 36.4212C40.1133 32.729 42.1875 27.7214 42.1875 22.5C42.1875 17.2786 40.1133 12.271 36.4212 8.57883C32.729 4.88671 27.7214 2.8125 22.5 2.8125ZM0 22.5C0 16.5326 2.37053 10.8097 6.5901 6.5901C10.8097 2.37053 16.5326 0 22.5 0C28.4674 0 34.1903 2.37053 38.4099 6.5901C42.6295 10.8097 45 16.5326 45 22.5C45 28.4674 42.6295 34.1903 38.4099 38.4099C34.1903 42.6295 28.4674 45 22.5 45C16.5326 45 10.8097 42.6295 6.5901 38.4099C2.37053 34.1903 0 28.4674 0 22.5Z"/>
</svg>
