<svg class="fill-hover" height="25" viewBox="0 0 46 44" xmlns="http://www.w3.org/2000/svg">
<path d="M3.10345 3.10345H27.931V18.3103H31.0345V3.10345C31.0345 2.28036 30.7075 1.49099 30.1255 0.908979C29.5435 0.326969 28.7541 0 27.931 0H3.10345C2.28036 0 1.49099 0.326969 0.908979 0.908979C0.326969 1.49099 0 2.28036 0 3.10345V40.3448C0 41.1679 0.326969 41.9573 0.908979 42.5393C1.49099 43.1213 2.28036 43.4483 3.10345 43.4483H27.931C28.7541 43.4483 29.5435 43.1213 30.1255 42.5393C30.7075 41.9573 31.0345 41.1679 31.0345 40.3448H3.10345V3.10345Z"/>
<path d="M36.9379 22.6069C36.6411 22.3527 36.2593 22.2198 35.8687 22.2349C35.4782 22.25 35.1077 22.4119 34.8314 22.6883C34.555 22.9646 34.3931 23.3351 34.378 23.7256C34.363 24.1161 34.4958 24.498 34.75 24.7948L39.9948 29.931H17.4948C17.0833 29.931 16.6886 30.0945 16.3976 30.3855C16.1066 30.6765 15.9431 31.0712 15.9431 31.4828C15.9431 31.8943 16.1066 32.289 16.3976 32.58C16.6886 32.871 17.0833 33.0345 17.4948 33.0345H39.9948L34.75 38.4034C34.5876 38.5425 34.4556 38.7137 34.3625 38.9062C34.2694 39.0988 34.217 39.3084 34.2088 39.5222C34.2005 39.7359 34.2365 39.949 34.3145 40.1481C34.3926 40.3472 34.5109 40.5281 34.6621 40.6793C34.8133 40.8305 34.9942 40.9488 35.1933 41.0268C35.3924 41.1049 35.6055 41.1409 35.8192 41.1326C36.0329 41.1244 36.2426 41.072 36.4351 40.9789C36.6277 40.8857 36.7988 40.7538 36.9379 40.5914L46 31.5914L36.9379 22.6069Z"/>
</svg>
