<svg class="stroke-hover" width="25" viewBox="0 0 49 49" fill="none" xmlns="http://www.w3.org/2000/svg">
<path d="M22.1279 6.74414H6.47287C5.28659 6.74414 4.1489 7.21539 3.31007 8.05421C2.47125 8.89304 2 10.0307 2 11.217V42.5271C2 43.7134 2.47125 44.851 3.31007 45.6899C4.1489 46.5287 5.28659 46.9999 6.47287 46.9999H37.7829C38.9692 46.9999 40.1069 46.5287 40.9457 45.6899C41.7846 44.851 42.2558 43.7134 42.2558 42.5271V26.872" stroke-width="4" stroke-linecap="round" stroke-linejoin="round"/>
<path d="M38.9011 3.38954C39.7908 2.49983 40.9975 2 42.2558 2C43.514 2 44.7207 2.49983 45.6104 3.38954C46.5001 4.27925 47 5.48595 47 6.74419C47 8.00243 46.5001 9.20913 45.6104 10.0988L24.3643 31.345L15.4186 33.5814L17.655 24.6357L38.9011 3.38954Z" stroke-width="4" stroke-linecap="round" stroke-linejoin="round"/>
</svg>
