<svg class="fill-hover" width="25" viewBox="0 0 45 52" xmlns="http://www.w3.org/2000/svg">
<path d="M13.8461 19.0385C14.3052 19.0385 14.7454 19.2208 15.07 19.5454C15.3945 19.87 15.5769 20.3102 15.5769 20.7692V41.5385C15.5769 41.9975 15.3945 42.4377 15.07 42.7623C14.7454 43.0869 14.3052 43.2692 13.8461 43.2692C13.3871 43.2692 12.9469 43.0869 12.6223 42.7623C12.2977 42.4377 12.1154 41.9975 12.1154 41.5385V20.7692C12.1154 20.3102 12.2977 19.87 12.6223 19.5454C12.9469 19.2208 13.3871 19.0385 13.8461 19.0385V19.0385ZM22.5 19.0385C22.959 19.0385 23.3992 19.2208 23.7238 19.5454C24.0484 19.87 24.2307 20.3102 24.2307 20.7692V41.5385C24.2307 41.9975 24.0484 42.4377 23.7238 42.7623C23.3992 43.0869 22.959 43.2692 22.5 43.2692C22.0409 43.2692 21.6007 43.0869 21.2761 42.7623C20.9516 42.4377 20.7692 41.9975 20.7692 41.5385V20.7692C20.7692 20.3102 20.9516 19.87 21.2761 19.5454C21.6007 19.2208 22.0409 19.0385 22.5 19.0385V19.0385ZM32.8846 20.7692C32.8846 20.3102 32.7022 19.87 32.3777 19.5454C32.0531 19.2208 31.6128 19.0385 31.1538 19.0385C30.6948 19.0385 30.2546 19.2208 29.93 19.5454C29.6054 19.87 29.423 20.3102 29.423 20.7692V41.5385C29.423 41.9975 29.6054 42.4377 29.93 42.7623C30.2546 43.0869 30.6948 43.2692 31.1538 43.2692C31.6128 43.2692 32.0531 43.0869 32.3777 42.7623C32.7022 42.4377 32.8846 41.9975 32.8846 41.5385V20.7692Z"/>
<path fill-rule="evenodd" clip-rule="evenodd" d="M45 10.3846C45 11.3027 44.6353 12.1831 43.9861 12.8323C43.337 13.4815 42.4565 13.8462 41.5385 13.8462H39.8077V45C39.8077 46.8361 39.0783 48.597 37.78 49.8953C36.4816 51.1937 34.7207 51.9231 32.8846 51.9231H12.1154C10.2793 51.9231 8.51836 51.1937 7.22003 49.8953C5.9217 48.597 5.19231 46.8361 5.19231 45V13.8462H3.46154C2.54348 13.8462 1.66303 13.4815 1.01386 12.8323C0.364697 12.1831 0 11.3027 0 10.3846V6.92308C0 6.00502 0.364697 5.12456 1.01386 4.4754C1.66303 3.82623 2.54348 3.46154 3.46154 3.46154H15.5769C15.5769 2.54348 15.9416 1.66303 16.5908 1.01386C17.2399 0.364697 18.1204 0 19.0385 0L25.9615 0C26.8796 0 27.7601 0.364697 28.4092 1.01386C29.0584 1.66303 29.4231 2.54348 29.4231 3.46154H41.5385C42.4565 3.46154 43.337 3.82623 43.9861 4.4754C44.6353 5.12456 45 6.00502 45 6.92308V10.3846ZM9.06231 13.8462L8.65385 14.0504V45C8.65385 45.9181 9.01854 46.7985 9.66771 47.4477C10.3169 48.0968 11.1973 48.4615 12.1154 48.4615H32.8846C33.8027 48.4615 34.6831 48.0968 35.3323 47.4477C35.9815 46.7985 36.3462 45.9181 36.3462 45V14.0504L35.9377 13.8462H9.06231ZM3.46154 10.3846V6.92308H41.5385V10.3846H3.46154Z"/>
</svg>
