<svg viewBox="0 0 195 196" width="35" class="logo" xmlns="http://www.w3.org/2000/svg">
<path d="M55.5372 74.8047C56.1231 74.9349 57.0997 75 58.4669 75C58.9877 75 59.5248 74.9349 60.0782 74.8047C60.6316 74.6745 61.1199 74.5443 61.543 74.4141C61.9662 74.2839 62.4545 74.0397 63.0079 73.6816C63.5613 73.3236 63.9845 73.0469 64.2774 72.8516C64.5704 72.6562 65.0261 72.2982 65.6446 71.7773C66.2631 71.2565 66.6537 70.931 66.8165 70.8008C66.9792 70.6706 67.3861 70.2962 68.0372 69.6777C68.6882 69.0592 69.0463 68.7174 69.1114 68.6523C70.4135 71.5169 72.3503 74.0397 74.922 76.2207C77.4936 78.4017 80.1791 79.4922 82.9786 79.4922C86.5593 79.4922 89.7494 78.1413 92.5489 75.4395C95.3484 72.7376 97.1387 69.5638 97.92 65.918C102.607 70.8659 106.937 73.3398 110.908 73.3398C113.317 73.3398 115.726 72.6562 118.135 71.2891C120.544 69.9219 122.627 68.2292 124.385 66.2109C125.231 70.2474 127.298 73.7467 130.586 76.709C133.874 79.6712 137.503 81.1523 141.475 81.1523C142.777 86.3607 143.428 91.6992 143.428 97.168C143.428 107.194 142.126 116.309 139.522 124.512C136.917 132.715 133.434 139.404 129.072 144.58C124.71 149.756 119.828 153.727 114.424 156.494C109.02 159.261 103.389 160.645 97.5294 160.645C91.67 160.579 86.0385 159.163 80.6348 156.396C75.2312 153.63 70.3484 149.674 65.9864 144.531C61.6244 139.388 58.1251 132.715 55.4884 124.512C52.8516 116.309 51.5333 107.194 51.5333 97.168C51.5333 89.9414 52.8679 82.487 55.5372 74.8047ZM71.9434 91.7969C69.7299 91.7969 67.7117 92.6921 65.8887 94.4824C64.0658 96.2728 63.1544 98.3073 63.1544 100.586C63.1544 102.799 63.9519 104.704 65.547 106.299C67.142 107.894 69.0463 108.691 71.2598 108.691C73.6036 108.691 75.6707 107.78 77.461 105.957C79.2514 104.134 80.1466 102.116 80.1466 99.9023V99.5117C78.2585 100.684 77.0867 101.27 76.6309 101.27C75.3289 101.27 74.2221 100.798 73.3106 99.8535C72.3992 98.9095 71.9434 97.7865 71.9434 96.4844C71.9434 95.3125 72.8549 93.9128 74.6778 92.2852C73.7012 91.9596 72.7898 91.7969 71.9434 91.7969ZM123.897 91.7969C121.683 91.7969 119.632 92.6921 117.744 94.4824C115.856 96.2728 114.912 98.3073 114.912 100.586C114.912 102.799 115.742 104.704 117.402 106.299C119.063 107.894 120.999 108.691 123.213 108.691C125.492 108.691 127.51 107.78 129.268 105.957C131.025 104.134 131.904 102.116 131.904 99.9023V99.5117C130.016 100.684 128.844 101.27 128.389 101.27C127.087 101.27 126.012 100.814 125.166 99.9023C124.32 98.9909 123.897 97.8516 123.897 96.4844C123.897 95.1823 124.743 93.7826 126.436 92.2852C125.459 91.9596 124.613 91.7969 123.897 91.7969ZM65.5958 21.2891C67.4838 16.6667 70.1368 12.7279 73.5548 9.47266C76.9727 6.21745 80.7 3.82487 84.7364 2.29492C88.7729 0.764974 93.0372 0 97.5294 0C102.022 0 106.286 0.764974 110.322 2.29492C114.359 3.82487 118.086 6.21745 121.504 9.47266C124.922 12.7279 127.575 16.6667 129.463 21.2891C133.369 19.7266 137.324 18.8965 141.328 18.7988C145.332 18.7012 149.076 19.2708 152.559 20.5078C156.042 21.7448 159.329 23.4375 162.422 25.5859C165.514 27.7344 168.119 30.3548 170.234 33.4473C172.35 36.5397 174.01 39.8275 175.215 43.3105C176.419 46.7936 176.94 50.5534 176.777 54.5898C176.615 58.6263 175.719 62.5977 174.092 66.5039C180.993 69.2383 186.266 73.6491 189.912 79.7363C193.558 85.8236 195.234 92.3014 194.941 99.1699C194.649 106.038 192.549 112.24 188.643 117.773C189.619 122.07 189.749 126.042 189.033 129.688C188.512 133.008 187.373 135.628 185.615 137.549C183.857 139.469 181.514 140.202 178.584 139.746C178.389 139.681 178.079 139.6 177.656 139.502C177.233 139.404 176.924 139.323 176.729 139.258C177.249 144.01 176.745 148.665 175.215 153.223C173.685 157.78 171.406 161.735 168.379 165.088C165.352 168.441 161.738 171.257 157.539 173.535C153.34 175.814 148.848 177.002 144.063 177.1C139.277 177.197 134.378 176.302 129.365 174.414C127.022 179.753 123.669 184.18 119.307 187.695C114.945 191.211 110.225 193.441 105.147 194.385C100.068 195.329 94.9903 195.329 89.9122 194.385C84.8341 193.441 80.1303 191.211 75.8009 187.695C71.4714 184.18 68.1674 179.753 65.8887 174.414C60.8757 176.302 55.9766 177.197 51.1915 177.1C46.4063 177.002 41.9304 175.814 37.7638 173.535C33.5971 171.257 29.9838 168.441 26.9239 165.088C23.864 161.735 21.5691 157.78 20.0391 153.223C18.5092 148.665 18.0046 144.01 18.5255 139.258C18.3302 139.323 18.0535 139.404 17.6954 139.502C17.3373 139.6 17.0606 139.681 16.8653 139.746C13.8705 140.202 11.4454 139.469 9.58992 137.549C7.73446 135.628 6.4812 133.008 5.83016 129.688C5.17912 126.237 5.34188 122.266 6.31844 117.773C2.34709 112.24 0.247476 106.022 0.0196113 99.1211C-0.208253 92.2201 1.54956 85.7585 5.29305 79.7363C9.03654 73.7142 14.3263 69.3034 21.1622 66.5039C19.5346 62.5977 18.6394 58.6263 18.4766 54.5898C18.3139 50.5534 18.8184 46.7936 19.9903 43.3105C21.1622 39.8275 22.8061 36.5397 24.922 33.4473C27.0378 30.3548 29.6257 27.7344 32.6856 25.5859C35.7455 23.4375 39.017 21.7448 42.5001 20.5078C45.9832 19.2708 49.7266 18.7012 53.7305 18.7988C57.7345 18.8965 61.6895 19.7266 65.5958 21.2891ZM148.994 77.7344C148.929 77.5391 149.824 77.8809 151.68 78.7598C153.535 79.6387 155.96 81.0221 158.955 82.9102C161.95 84.7982 165.075 87.0117 168.33 89.5508C171.585 92.0898 174.841 95.166 178.096 98.7793C181.351 102.393 183.923 106.087 185.811 109.863C187.699 106.217 188.659 102.393 188.691 98.3887C188.724 94.3848 187.91 90.5762 186.25 86.9629C184.59 83.3496 181.888 80.0456 178.145 77.0508C174.401 74.056 169.925 71.8099 164.717 70.3125C167.386 65.5599 168.997 60.8073 169.551 56.0547C170.104 51.3021 169.762 47.054 168.525 43.3105C167.288 39.5671 165.27 36.2793 162.471 33.4473C159.671 30.6152 156.4 28.5482 152.656 27.2461C148.913 25.944 144.649 25.5371 139.863 26.0254C135.078 26.5137 130.277 28.0599 125.459 30.6641C124.027 25.4557 121.813 20.9961 118.818 17.2852C115.824 13.5742 112.536 10.8561 108.955 9.13086C105.374 7.4056 101.566 6.54297 97.5294 6.54297C93.4929 6.54297 89.6843 7.4056 86.1036 9.13086C82.5229 10.8561 79.2351 13.5742 76.2403 17.2852C73.2455 20.9961 71.032 25.4557 69.5997 30.6641C64.782 28.0599 59.9968 26.5137 55.2442 26.0254C50.4916 25.5371 46.2436 25.944 42.5001 27.2461C38.7566 28.5482 35.4851 30.6152 32.6856 33.4473C29.8861 36.2793 27.8679 39.5671 26.6309 43.3105C25.394 47.054 25.0684 51.3021 25.6544 56.0547C26.2403 60.8073 27.8679 65.5599 30.5372 70.3125C25.2638 71.8099 20.7553 74.056 17.0118 77.0508C13.2683 80.0456 10.5502 83.3496 8.8575 86.9629C7.16479 90.5762 6.33472 94.3848 6.36727 98.3887C6.39982 102.393 7.36011 106.217 9.24813 109.863C11.1361 106.087 13.7078 102.393 16.963 98.7793C20.2182 95.166 23.4734 92.0898 26.7286 89.5508C29.9838 87.0117 33.0925 84.7982 36.0548 82.9102C39.017 81.0221 41.4259 79.6224 43.2813 78.7109C45.1368 77.7995 45.9994 77.474 45.8692 77.7344C43.5255 82.7474 42.3048 88.4277 42.2071 94.7754C42.1095 101.123 42.9721 106.641 44.795 111.328C44.0138 112.63 42.7605 115.446 41.0352 119.775C39.31 124.105 37.3568 127.588 35.1759 130.225C32.9949 132.861 29.9513 135.059 26.045 136.816C25.0033 141.634 25.0196 146.224 26.0938 150.586C27.168 154.948 29.1212 158.594 31.9532 161.523C34.7852 164.453 38.1218 166.715 41.963 168.311C45.8041 169.906 50.1661 170.443 55.0489 169.922C59.9317 169.401 64.782 167.806 69.5997 165.137C71.0971 170.28 73.3432 174.674 76.338 178.32C79.3328 181.966 82.6042 184.635 86.1524 186.328C89.7006 188.021 93.4929 188.867 97.5294 188.867C101.566 188.867 105.358 188.021 108.906 186.328C112.455 184.635 115.726 181.966 118.721 178.32C121.716 174.674 123.962 170.28 125.459 165.137C130.277 167.806 135.127 169.401 140.01 169.922C144.893 170.443 149.271 169.906 153.145 168.311C157.018 166.715 160.371 164.453 163.203 161.523C166.035 158.594 167.988 154.948 169.063 150.586C170.137 146.224 170.153 141.634 169.111 136.816C166.052 135.449 163.447 133.659 161.299 131.445C159.15 129.232 157.621 127.165 156.709 125.244C155.798 123.324 154.723 120.898 153.486 117.969C152.249 115.039 151.208 112.826 150.361 111.328C152.119 106.641 152.917 101.139 152.754 94.8242C152.591 88.5091 151.338 82.8125 148.994 77.7344Z"/>
</svg>
